<svg width="64" height="64" viewBox="0 0 64 64" xmlns="http://www.w3.org/2000/svg">
  <rect width="64" height="64" rx="12" fill="#111" />
  <path d="M20 42 C18 36, 20 28, 28 28 C32 28, 34 30, 34 34 C34 38, 32 40, 28 40 C25 40, 23 39, 22 38" stroke="#888" stroke-width="2" fill="none"/>
  <path d="M44 22 C46 28, 44 36, 36 36 C32 36, 30 34, 30 30 C30 26, 32 24, 36 24 C39 24, 41 25, 42 26" stroke="#888" stroke-width="2" fill="none"/>
  <path d="M32 8 L34 18 L32 20 L30 18 Z" fill="#888"/>
  <text x="18" y="56" font-family="Georgia, serif" font-size="12" fill="#aaa">Q S</text>
</svg>
